<?xml version="1.0" encoding="utf-8"?>
<!-- Generator: Adobe Illustrator 22.1.0, SVG Export Plug-In . SVG Version: 6.00 Build 0)  -->
<svg version="1.1" id="Layer_1" xmlns="http://www.w3.org/2000/svg" xmlns:xlink="http://www.w3.org/1999/xlink" x="0px" y="0px"
	 viewBox="0 0 500 95" style="enable-background:new 0 0 500 95;" xml:space="preserve">
<style type="text/css">
	.st0{fill:#FFFFFF;}
</style>
<g>
	<path class="st0" d="M40,67.9c0,7.9-5.9,16.8-17.8,16.8H3.5V27h15.8c11.3,0,16.8,6.9,16.8,15.3c0,4.9-2,8.4-5.4,11.3
		C36.6,55.6,40,61,40,67.9z M11.4,34.8v16.3h7.4c5.9,0,9.9-3.9,9.9-7.9c0-4.9-3.9-7.9-9.9-7.9L11.4,34.8L11.4,34.8z M32.1,67.4
		c0-4.9-3.9-9.4-10.4-9.4H11.4v18.3h10.4C28.2,76.8,32.1,72.8,32.1,67.4z"/>
	<path class="st0" d="M56.3,55.6C56.3,39.3,68.1,26,85.9,26s29.6,13.8,29.6,29.6c0,16.3-11.8,29.6-29.6,29.6
		C68.1,85.7,56.3,71.8,56.3,55.6z M107.6,55.6c0-11.8-8.4-22.2-21.7-22.2S64.2,43.7,64.2,55.6s8.4,22.2,21.7,22.2
		S107.6,67.4,107.6,55.6z"/>
	<path class="st0" d="M181.1,27v58.2h-1l-37.5-40.5v39.5h-7.4V26h1l37.5,40.9V27H181.1L181.1,27z"/>
	<path class="st0" d="M283.3,67.9c0,7.9-5.9,16.8-17.8,16.8h-18.7V27h15.8c11.3,0,16.8,6.9,16.8,15.3c0,4.9-2,8.4-5.4,11.3
		C279.8,55.6,283.3,61,283.3,67.9z M254.1,34.8v16.3h7.4c5.9,0,9.9-3.9,9.9-7.9c0-4.9-3.9-7.9-9.9-7.9L254.1,34.8L254.1,34.8z
		 M275.4,67.4c0-4.9-3.9-9.4-10.4-9.4h-10.4v18.3H265C271.4,76.8,275.4,72.8,275.4,67.4z"/>
	<path class="st0" d="M321.7,62.5h-7.4v22.2h-7.4V27h15.8c11.8,0,18.7,8.4,18.7,17.8c0,7.4-4.4,13.8-11.8,16.8l13.8,23.2h-8.4
		L321.7,62.5z M313.8,55.1h7.4c6.4,0,11.3-4.4,11.3-10.4s-4.4-10.4-11.3-10.4h-7.4V55.1z"/>
	<path class="st0" d="M364.2,27h7.4v57.7h-7.4V27z"/>
	<path class="st0" d="M441.6,55.6c0,16.3-10.9,29.1-28.6,29.1h-14.8V27H413C430.8,27,441.6,40.3,441.6,55.6z M433.7,55.6
		c0-11.8-7.4-21.2-21.2-21.2h-6.9v41.9h7.4C425.8,76.8,433.7,66.9,433.7,55.6z"/>
	<path class="st0" d="M472.7,34.8v16.8H491V59h-18.3v17.8h23.7v7.4h-31.1V27h31.1v7.4h-23.7V34.8z M484.1,20.5h-6.4L485,6.7h8.4
		L484.1,20.5z"/>
</g>
</svg>
