<?xml version="1.0" standalone="no"?>
<!DOCTYPE svg PUBLIC "-//W3C//DTD SVG 20010904//EN"
 "http://www.w3.org/TR/2001/REC-SVG-20010904/DTD/svg10.dtd">
<svg version="1.0" xmlns="http://www.w3.org/2000/svg"
 width="261.000000pt" height="261.000000pt" viewBox="0 0 261.000000 261.000000"
 preserveAspectRatio="xMidYMid meet">
<metadata>
Created by potrace 1.11, written by Peter Selinger 2001-2013
</metadata>
<g transform="translate(0.000000,261.000000) scale(0.100000,-0.100000)"
fill="#000000" stroke="none">
<path d="M399 1845 c-1 0 -2 -242 -3 -538 l-1 -538 64 3 65 3 -1 48 -1 47 44
-39 c112 -99 288 -92 399 16 119 116 134 338 32 480 -104 146 -322 167 -443
44 l-31 -32 1 242 c1 132 -2 246 -6 252 -5 8 -102 18 -119 12z m419 -539 c69
-36 114 -117 113 -202 -1 -126 -84 -214 -201 -214 -95 0 -171 62 -195 158 -15
59 -10 104 20 167 24 49 81 97 130 107 33 8 105 -1 133 -16z"/>
<path d="M1220 1308 l0 -538 65 0 65 0 0 51 0 51 37 -36 c81 -78 223 -97 329
-44 60 30 128 106 153 171 26 70 27 212 1 280 -80 210 -331 277 -487 130 l-33
-31 0 252 0 252 -65 -1 -65 0 0 -537z m415 2 c70 -23 125 -118 125 -217 0 -56
-44 -139 -91 -170 -73 -48 -171 -44 -236 12 -52 44 -77 96 -79 164 -5 160 129
261 281 211z"/>
<path d="M2075 1425 c-35 -34 -34 -88 1 -120 62 -58 155 -4 140 80 -12 63 -95
87 -141 40z"/>
<path d="M2071 904 c-29 -37 -27 -89 4 -119 60 -61 159 -1 140 84 -13 62 -105
84 -144 35z"/>
</g>
</svg>
