<?xml version="1.0" encoding="utf-8"?>
<!-- Generator: Adobe Illustrator 22.1.0, SVG Export Plug-In . SVG Version: 6.00 Build 0)  -->
<svg version="1.1" id="Layer_1" xmlns="http://www.w3.org/2000/svg" xmlns:xlink="http://www.w3.org/1999/xlink" x="0px" y="0px"
	 viewBox="0 0 300 57" style="enable-background:new 0 0 300 57;" xml:space="preserve">
<style type="text/css">
	.st0{fill:#FFFFFF;}
</style>
<g>
	<path class="st0" d="M24,40.1c0,4.7-3.6,10.1-10.7,10.1H2.2V15.6h9.5c6.8,0,10.1,4.1,10.1,9.2c0,3-1.2,5-3.3,6.8
		C22,32.7,24,36,24,40.1z M6.9,20.3v9.8h4.4c3.6,0,5.9-2.4,5.9-4.7c0-3-2.4-4.7-5.9-4.7L6.9,20.3L6.9,20.3z M19.3,39.8
		c0-3-2.4-5.6-6.2-5.6H6.9v10.9h6.2C16.9,45.4,19.3,43.1,19.3,39.8z"/>
	<path class="st0" d="M33.8,32.7C33.8,23,40.9,15,51.6,15s17.8,8.3,17.8,17.8c0,9.8-7.1,17.8-17.8,17.8
		C40.9,50.8,33.8,42.5,33.8,32.7z M64.6,32.7c0-7.1-5-13.3-13-13.3s-13,6.2-13,13.3s5,13.3,13,13.3S64.6,39.8,64.6,32.7z"/>
	<path class="st0" d="M108.7,15.6v34.9h-0.6L85.6,26.2v23.7h-4.4V15h0.6l22.5,24.6v-24H108.7L108.7,15.6z"/>
	<path class="st0" d="M169.9,40.1c0,4.7-3.6,10.1-10.7,10.1H148V15.6h9.5c6.8,0,10.1,4.1,10.1,9.2c0,3-1.2,5-3.3,6.8
		C167.9,32.7,169.9,36,169.9,40.1z M152.5,20.3v9.8h4.4c3.6,0,5.9-2.4,5.9-4.7c0-3-2.4-4.7-5.9-4.7L152.5,20.3L152.5,20.3z
		 M165.2,39.8c0-3-2.4-5.6-6.2-5.6h-6.2v10.9h6.2C162.8,45.4,165.2,43.1,165.2,39.8z"/>
	<path class="st0" d="M193,36.9h-4.4v13.3h-4.4V15.6h9.5c7.1,0,11.2,5,11.2,10.7c0,4.4-2.7,8.3-7.1,10.1l8.3,13.9h-5L193,36.9z
		 M188.3,32.4h4.4c3.8,0,6.8-2.7,6.8-6.2s-2.7-6.2-6.8-6.2h-4.4V32.4z"/>
	<path class="st0" d="M218.4,15.6h4.4v34.6h-4.4V15.6z"/>
	<path class="st0" d="M264.9,32.7c0,9.8-6.5,17.5-17.2,17.5h-8.9V15.6h8.9C258.4,15.6,264.9,23.5,264.9,32.7z M260.2,32.7
		c0-7.1-4.4-12.7-12.7-12.7h-4.1v25.2h4.4C255.4,45.4,260.2,39.5,260.2,32.7z"/>
	<path class="st0" d="M283.5,20.3v10.1h10.9v4.4h-10.9v10.7h14.2v4.4h-18.6V15.6h18.6V20h-14.2V20.3z M290.4,11.7h-3.8l4.4-8.3h5
		L290.4,11.7z"/>
</g>
</svg>
